HIERARCHY
ROOT Root
{
	OFFSET 0.00000 0.00000 0.00000
	CHANNELS 6 Xposition Yposition Zposition Zrotation Xrotation Yrotation
	JOINT Hip
	{
		OFFSET 0 0 0	
		CHANNELS 3 Zrotation Xrotation Yrotation
		JOINT Tummy
		{
			OFFSET 0 0.04 0	
			CHANNELS 3 Zrotation Xrotation Yrotation
			JOINT ChestBottom
			{
				OFFSET 0 0.194 0	
				CHANNELS 3 Zrotation Xrotation Yrotation
				JOINT ChestTop
				{
					OFFSET 0 0.166 0	
					CHANNELS 3 Zrotation Xrotation Yrotation
					JOINT LeftCollar
					{
						OFFSET 0 0.1 0	
						CHANNELS 3 Zrotation Xrotation Yrotation
						JOINT LeftUpperArm
						{
							OFFSET 0.156 -0.02 0	
							CHANNELS 3 Zrotation Xrotation Yrotation
							JOINT LeftForeArm
							{
								OFFSET 0.026 -0.255 0	
								CHANNELS 3 Zrotation Xrotation Yrotation
								JOINT LeftHand
								{
									OFFSET 0.0065 -0.311 0	
									CHANNELS 3 Zrotation Xrotation Yrotation
									End Site
									{
										OFFSET 0 -0.15 0
									}
								}
							}
						}
					}
					JOINT RightCollar
					{
						OFFSET 0 0.1 0	
						CHANNELS 3 Zrotation Xrotation Yrotation
						JOINT RightUpperArm
						{
							OFFSET -0.156 -0.02 0	
							CHANNELS 3 Zrotation Xrotation Yrotation
							JOINT RightForeArm
							{
								OFFSET -0.026 -0.255 0	
								CHANNELS 3 Zrotation Xrotation Yrotation
								JOINT RightHand
								{
									OFFSET -0.0065 -0.311 0	
									CHANNELS 3 Zrotation Xrotation Yrotation
									End Site
									{
										OFFSET 0 -0.15 0
									}
								}
							}
						}
					}
					JOINT Neck
					{
						OFFSET 0 0.1 0	
						CHANNELS 3 Zrotation Xrotation Yrotation
						JOINT Head
						{
							OFFSET 0 0.127 0	
							CHANNELS 3 Zrotation Xrotation Yrotation
							End Site
							{
								OFFSET 0 0.127 0.0156
							}
						}
					}
				}
			}
		}
	}
	JOINT LeftHip
	{
		OFFSET 0 0 0	
		CHANNELS 3 Zrotation Xrotation Yrotation
		JOINT LeftThigh
		{
			OFFSET 0.088 -0.02 0	
			CHANNELS 3 Zrotation Xrotation Yrotation
			JOINT LeftLowerLeg
			{
				OFFSET 0 -0.422 0	
				CHANNELS 3 Zrotation Xrotation Yrotation
				JOINT LeftFootTop
				{
					OFFSET 0 -0.443 0	
					CHANNELS 3 Zrotation Xrotation Yrotation
					JOINT LeftFootFront
					{
						OFFSET 0 -0.04 0.1047	
						CHANNELS 3 Zrotation Xrotation Yrotation
						End Site
						{
							OFFSET 0 -0.0345 0.0931
						}
					}
				}
			}
		}
	}
	JOINT RightHip
	{
		OFFSET 0 0 0	
		CHANNELS 3 Zrotation Xrotation Yrotation
		JOINT RightThigh
		{
			OFFSET -0.088 -0.02 0	
			CHANNELS 3 Zrotation Xrotation Yrotation
			JOINT RightLowerLeg
			{
				OFFSET 0 -0.422 0	
				CHANNELS 3 Zrotation Xrotation Yrotation
				JOINT RightFootTop
				{
					OFFSET 0 -0.443 0	
					CHANNELS 3 Zrotation Xrotation Yrotation
					JOINT RightFootFront
					{
						OFFSET 0 -0.04 0.1047	
						CHANNELS 3 Zrotation Xrotation Yrotation
						End Site
						{
							OFFSET 0 -0.0345 0.0931
						}
					}
				}
			}
		}
	}
}
MOTION
Frames: 7
Frame Time: 0.025
0 0.8508 0 -0 0 -0 -9.6308 7.3685 -12.195 -3.5749 3.3921 3.4837 -5.9512 5.4228 5.8049 -2.48 2.3975 2.4157 -0 0 -0 75.257 -3.146 40.413 15.981 2.7364 16.638 -0.078669 0.052945 -0.11295 -0 0 -0 -63.535 6.2897 -46.485 -17.101 2.2645 -39.037 0.14514 -0.081602 -0.13874 -9.4613 4.0176 29.41 -9.4613 4.0176 29.41 -9.6308 7.3685 -12.195 42.1 -46.112 17.075 -37.734 47.807 58.499 -0 0 -0 -0.065894 -9.4316 -0.099848 -9.6308 7.3685 -12.195 -21.815 -6.7176 -13.842 2.1264 10.972 -17.716 -0 0 -0 -0.19198 0.13952 1.5204 
0 0.8486 0 -0 0 -0 -13.581 8.872 -9.8156 -4.1367 2.5267 3.9522 -6.8478 3.9744 6.5504 -2.877 1.7988 2.747 -0 0 -0 76.9 -3.6487 38.98 15.528 2.6705 17.776 -0.042912 -0.042984 -0.11316 -0 0 -0 -66.262 7.5755 -46.047 -17.608 1.5319 -38.359 0.15553 -0.10716 -0.18028 -8.1636 3.718 29.366 -8.1636 3.718 29.366 -13.581 8.872 -9.8156 45.8 -49.022 21.028 -36.187 52.66 54.927 -0 0 -0 -0.26431 -11.237 0.43002 -13.581 8.872 -9.8156 -19.082 -7.4074 -9.0245 1.4839 12.098 -14.608 -0 0 -0 -0.059299 0.28914 1.0907 
0 0.84749 0 -0 0 -0 -17.416 10.609 -6.9183 -4.7631 1.5785 4.2929 -7.8376 2.39 7.0757 -3.3217 1.1426 2.9913 -0 0 -0 78.414 -4.6996 37.893 15.228 2.4332 18.304 -0.044799 -0.14005 -0.027387 -0 0 -0 -69.283 8.6582 -44.902 -17.966 1.0094 -38.456 0.15013 -0.16059 0.094949 -6.8536 3.3545 29.091 -6.8536 3.3545 29.091 -17.416 10.609 -6.9183 49.083 -52.243 22.161 -36.953 54.831 55.401 -0 0 -0 -0.27429 -12.749 0.47071 -17.416 10.609 -6.9183 -16.817 -8.353 -4.8494 1.2592 13.475 -9.2217 -0 0 -0 0.009291 0.59772 -0.42264 
0 0.84751 0 -0 0 -0 -20.823 12.112 -3.3759 -5.5529 0.88247 4.3796 -9.0989 1.2195 7.1899 -3.8801 0.6624 3.0569 -0 0 -0 79.917 -6.17 37.454 14.94 2.0787 18.605 -0.060732 -0.14611 -0.13506 -0 0 -0 -72.417 9.103 -43.152 -18.474 0.6039 -39.181 0.22624 -0.18094 0.3454 -5.6608 2.7076 28.567 -5.6608 2.7076 28.567 -20.823 12.112 -3.3759 51.876 -55.427 20.947 -40.974 54.532 59.968 -0 0 -0 -0.1061 -14.178 -0.12448 -20.823 12.112 -3.3759 -15.528 -8.8398 -2.4989 1.3776 15.326 -3.4542 -0 0 -0 -0.12566 0.68512 -2.038 
0 0.84872 0 -0 0 -0 -23.839 13.418 0.67335 -6.5696 0.54078 4.1713 -10.744 0.63434 6.8346 -4.5948 0.42885 2.9138 -0 0 -0 81.533 -7.9371 38.075 14.818 1.5861 18.373 -0.064945 -0.058925 -0.28562 -0 0 -0 -75.278 8.6673 -41.552 -19.087 -0.052835 -39.688 0.39269 -0.21984 0.27552 -4.5286 1.6313 27.882 -4.5286 1.6313 27.882 -23.839 13.418 0.67335 54.409 -58.704 20.618 -44.373 54.213 62.987 -0 0 -0 -0.10737 -15.583 0.10758 -23.839 13.418 0.67335 -15.328 -8.8928 -2.3308 1.3658 17.943 0.072882 -0 0 -0 -0.28738 0.32398 -1.9479 
0 0.85114 0 -0 0 -0 -26.725 14.627 4.9204 -7.7609 0.44328 3.7391 -12.685 0.46062 6.1248 -5.4298 0.36357 2.6115 -0 0 -0 83.451 -9.8401 39.604 14.852 1.1679 17.196 -0.08371 -0.039641 -0.027325 -0 0 -0 -77.698 7.4807 -40.569 -19.499 -1.5652 -39.64 0.56057 -0.2938 0.0099239 -3.3539 0.32002 27.168 -3.3539 0.32001 27.168 -26.725 14.627 4.9204 56.818 -61.902 22.16 -46.041 54.521 63.891 -0 0 -0 -0.081627 -16.98 0.26197 -26.725 14.627 4.9204 -15.996 -8.0949 -4.0217 0.85659 20.255 1.7513 -0 0 -0 -0.27932 -0.12198 -0.85516 
0 0.85483 0 -0 0 -0 -29.829 15.213 8.7628 -8.9113 0.49759 3.3519 -14.564 0.54105 5.499 -6.235 0.40318 2.3388 -0 0 -0 85.764 -11.716 41.288 14.753 1.0783 15.739 -0.090382 -0.077923 0.209 -0 0 -0 -79.83 5.7134 -40.018 -19.55 -4.4185 -39.432 0.56142 -0.27773 -0.012457 -2.1404 -0.88616 26.504 -2.1404 -0.88616 26.504 -29.829 15.213 8.7628 59.38 -64.048 23.372 -48.049 53.961 65.414 -0 0 -0 -0.099758 -18.444 0.086616 -29.829 15.213 8.7628 -16.62 -5.7315 -5.9762 -0.18109 21.078 3.0292 -0 0 -0 -0.006453 -0.37504 0.096463 
